<?xml version="1.0" standalone="no"?>
<!DOCTYPE svg PUBLIC "-//W3C//DTD SVG 20010904//EN"
 "http://www.w3.org/TR/2001/REC-SVG-20010904/DTD/svg10.dtd">
<svg version="1.0" xmlns="http://www.w3.org/2000/svg"
 width="500.000000pt" height="500.000000pt" viewBox="0 0 500.000000 500.000000"
 preserveAspectRatio="xMidYMid meet">
<metadata>
Created by potrace 1.14, written by Peter Selinger 2001-2017
</metadata>
<g transform="translate(0.000000,500.000000) scale(0.100000,-0.100000)"
fill="#000000" stroke="none">
<path d="M4564 4202 c-7 -4 -23 -50 -38 -103 -85 -313 -218 -623 -364 -849
-174 -269 -411 -492 -633 -594 -80 -37 -179 -71 -236 -82 -31 -6 -35 -5 -29
12 3 11 26 105 50 209 25 105 95 396 155 649 61 252 111 464 111 472 0 7 -10
18 -21 25 -43 23 -31 66 -270 -936 -50 -209 -92 -381 -94 -383 -1 -1 -24 11
-51 27 -109 68 -241 77 -273 20 -42 -76 52 -156 213 -180 42 -6 76 -14 76 -18
0 -4 -29 -135 -64 -291 -146 -650 -185 -885 -156 -941 13 -23 53 -25 75 -3 26
27 76 134 73 157 -4 31 -42 34 -62 5 -12 -17 -16 -19 -16 -6 0 38 56 316 135
674 47 210 85 384 85 388 0 3 5 6 10 6 20 0 130 -163 289 -427 196 -324 272
-434 371 -534 101 -102 185 -144 285 -144 117 1 226 68 181 113 -14 14 -21 13
-76 -13 -117 -56 -219 -27 -340 95 -88 89 -166 203 -350 508 -165 273 -203
332 -257 400 -24 29 -30 43 -21 46 89 25 198 66 263 99 454 227 809 746 1010
1474 23 84 26 105 15 118 -14 16 -29 19 -46 7z m-1528 -1582 c32 -11 70 -29
84 -40 l25 -20 -41 0 c-48 0 -98 15 -136 42 -59 41 -25 49 68 18z"/>
<path d="M1630 4037 c-44 -14 -144 -115 -189 -190 -58 -98 -84 -182 -85 -272
-1 -68 3 -87 24 -125 43 -76 130 -117 146 -68 5 17 1 26 -16 38 -70 48 -97
107 -85 184 25 150 168 366 242 366 60 0 45 -150 -56 -585 -45 -192 -83 -350
-84 -351 -1 0 -36 -14 -77 -29 -208 -78 -391 -194 -540 -344 -258 -260 -384
-568 -384 -941 0 -263 58 -451 178 -571 69 -70 133 -99 216 -99 106 0 180 53
253 180 45 78 73 183 182 685 131 601 234 1057 240 1063 10 10 196 53 300 69
60 9 116 21 123 26 17 13 15 44 -4 55 -19 10 -153 -9 -299 -43 -55 -13 -101
-22 -102 -21 -1 1 25 116 58 256 95 405 101 439 103 540 1 151 -45 207 -144
177z m-124 -1104 c-8 -26 -194 -870 -266 -1208 -68 -316 -101 -422 -157 -503
-147 -215 -397 -71 -467 270 -21 101 -21 325 0 449 74 439 362 791 798 974 94
40 99 41 92 18z"/>
<path d="M2455 3201 c-93 -56 -145 -198 -145 -399 l0 -83 -145 -151 c-210
-218 -263 -306 -231 -382 20 -48 60 -66 143 -66 79 0 169 20 261 57 62 24 67
25 77 8 77 -130 98 -156 124 -153 35 4 39 38 8 80 -13 18 -36 54 -50 80 l-27
46 50 31 c148 91 238 231 184 285 -29 30 -114 12 -114 -24 0 -11 26 -37 42
-42 19 -7 -31 -65 -106 -124 -37 -30 -72 -54 -76 -54 -10 0 -47 138 -60 225
-19 135 -17 146 49 234 151 205 199 366 126 428 -32 28 -70 29 -110 4z m70
-71 c8 -26 -11 -92 -47 -165 -36 -71 -88 -148 -95 -141 -10 10 19 182 39 228
19 44 67 98 88 98 5 0 11 -9 15 -20z m-201 -631 c9 -52 24 -124 35 -159 23
-73 25 -69 -59 -101 -115 -43 -235 -62 -284 -43 -26 10 -18 59 19 114 36 54
268 302 272 291 1 -3 9 -49 17 -102z"/>
</g>
</svg>
